<svg width="64" height="64" viewBox="0 0 64 64" xmlns="http://www.w3.org/2000/svg">
<path d="M42.38 30.7498H33.2C32.8754 30.751 32.5591 30.6475 32.2979 30.4548C32.0367 30.2621 31.8446 29.9903 31.75 29.6798L29 20.8098C28.7161 19.8884 28.1444 19.0822 27.3687 18.5096C26.593 17.9369 25.6542 17.6279 24.69 17.6279C23.7259 17.6279 22.7871 17.9369 22.0114 18.5096C21.2357 19.0822 20.664 19.8884 20.38 20.8098L17.63 29.6798C17.5374 29.9895 17.3471 30.261 17.0876 30.4538C16.8281 30.6466 16.5133 30.7504 16.19 30.7498H7.00004C6.05515 30.7476 5.13346 31.0423 4.36508 31.5923C3.5967 32.1422 3.02044 32.9195 2.71767 33.8146C2.41489 34.7097 2.40089 35.6772 2.67763 36.5807C2.95438 37.4841 3.5079 38.2778 4.26004 38.8498L12 44.7098C12.2442 44.8993 12.4248 45.1588 12.5177 45.4536C12.6106 45.7484 12.6114 46.0645 12.52 46.3598L9.65004 55.6598C9.35789 56.5752 9.36645 57.5601 9.67445 58.4703C9.98245 59.3805 10.5737 60.1682 11.3617 60.7181C12.1497 61.2681 13.093 61.5513 14.0536 61.5264C15.0142 61.5015 15.9416 61.1698 16.7 60.5798L23.82 55.1398C24.0852 54.9402 24.4081 54.8323 24.74 54.8323C25.0719 54.8323 25.3948 54.9402 25.66 55.1398L32.77 60.5798C33.53 61.1624 34.4557 61.488 35.413 61.5094C36.3704 61.5308 37.3097 61.247 38.095 60.6989C38.8802 60.1509 39.4707 59.3672 39.7808 58.4612C40.091 57.5552 40.1047 56.5741 39.82 55.6598L36.95 46.3598C36.8598 46.0635 36.8621 45.7467 36.9569 45.4518C37.0516 45.157 37.2341 44.898 37.48 44.7098L45.16 38.8498C45.9122 38.2778 46.4657 37.4841 46.7424 36.5807C47.0192 35.6772 47.0052 34.7097 46.7024 33.8146C46.3996 32.9195 45.8234 32.1422 45.055 31.5923C44.2866 31.0423 43.3649 30.7476 42.42 30.7498H42.38Z" fill="currentColor"/>
<path d="M61.3301 11.9999C61.1241 11.368 60.7224 10.8181 60.183 10.4297C59.6436 10.0414 58.9947 9.83482 58.3301 9.83993H53.2101C53.1838 9.8464 53.1564 9.8465 53.13 9.84024C53.1037 9.83398 53.0793 9.82154 53.0588 9.80393C53.0382 9.78633 53.0222 9.76408 53.012 9.73904C53.0018 9.71399 52.9977 9.68687 53.0001 9.65993L51.51 4.71993C51.3024 4.0784 50.8969 3.51917 50.3516 3.12252C49.8063 2.72587 49.1493 2.51221 48.475 2.51221C47.8008 2.51221 47.1438 2.72587 46.5985 3.12252C46.0533 3.51917 45.6477 4.0784 45.4401 4.71993L43.9101 9.71993C43.899 9.75593 43.8763 9.78726 43.8456 9.80898C43.8148 9.83069 43.7777 9.84158 43.7401 9.83993H38.6301C37.9639 9.8357 37.3133 10.0415 36.7707 10.428C36.2281 10.8145 35.821 11.3622 35.6074 11.9932C35.3937 12.6242 35.3843 13.3065 35.5805 13.9432C35.7766 14.5799 36.1683 15.1385 36.7001 15.5399L41.0001 18.7599C41.026 18.7945 41.0401 18.8367 41.0401 18.8799C41.0401 18.9232 41.026 18.9653 41.0001 18.9999L39.4001 24.1699C39.1905 24.8192 39.1954 25.5186 39.4138 26.1649C39.6323 26.8112 40.0528 27.3701 40.6133 27.759C41.1738 28.148 41.8445 28.3464 42.5264 28.325C43.2082 28.3035 43.8651 28.0633 44.4001 27.6399L48.4001 24.6399C48.43 24.6164 48.467 24.6036 48.5051 24.6036C48.5431 24.6036 48.5801 24.6164 48.6101 24.6399L52.6101 27.6399C53.1466 28.0558 53.8017 28.2897 54.4803 28.3076C55.1589 28.3255 55.8255 28.1264 56.3832 27.7394C56.9409 27.3524 57.3605 26.7976 57.5812 26.1556C57.8018 25.5136 57.8119 24.818 57.6101 24.1699L55.9101 18.9999C55.9017 18.9643 55.9029 18.927 55.9134 18.8919C55.924 18.8569 55.9435 18.8251 55.9701 18.7999L60.2501 15.5299C60.7822 15.133 61.1739 14.5766 61.3681 13.9418C61.5624 13.3069 61.549 12.6267 61.3301 11.9999V11.9999Z" fill="currentColor"/>
</svg>
