<svg xmlns="http://www.w3.org/2000/svg" version="1.0" viewBox="0 0 969.000000 969.000000" preserveAspectRatio="xMidYMid meet">

<g transform="translate(0.000000,969.000000) scale(0.100000,-0.100000)" fill="currentColor" stroke="none">
<path d="M4599 9679 c-1303 -65 -2530 -662 -3398 -1654 -1043 -1192 -1434 -2804 -1055 -4343 67 -275 169 -570 288 -836 l27 -58 28 38 c83 116 227 210 411 271 47 15 86 29 88 29 2 1 -26 75 -61 165 -119 301 -124 331 -60 358 27 11 41 6 201 -73 95 -46 186 -89 203 -95 30 -10 31 -10 25 12 -54 191 -66 270 -66 444 0 205 -31 266 -189 372 -183 124 -313 257 -374 381 -29 58 -32 74 -32 155 0 81 3 97 32 155 92 188 319 373 673 549 192 95 376 171 415 171 36 0 95 -27 127 -57 47 -45 51 -75 39 -292 -17 -324 -22 -421 -17 -421 2 0 19 7 38 15 20 8 101 28 181 44 202 41 284 87 356 199 47 74 60 122 76 289 8 84 19 173 26 196 32 123 133 243 254 303 83 41 203 64 555 108 535 67 782 81 1450 81 673 0 928 -14 1455 -80 478 -60 563 -84 676 -192 111 -105 141 -183 163 -411 17 -181 37 -246 96 -321 76 -96 148 -134 312 -167 108 -21 188 -42 228 -58 18 -7 17 34 -1 391 -12 243 -9 270 39 316 32 31 91 57 127 57 68 0 504 -204 680 -318 287 -187 445 -384 445 -557 0 -64 -29 -148 -78 -225 -48 -76 -181 -203 -291 -280 -135 -93 -167 -124 -203 -197 -31 -63 -31 -67 -30 -195 2 -149 -16 -288 -51 -401 l-25 -78 21 7 c12 3 105 46 207 96 200 96 210 98 245 44 15 -23 14 -30 -15 -117 -17 -51 -56 -156 -86 -232 -31 -76 -54 -139 -52 -141 1 -1 41 -15 88 -30 183 -59 307 -139 401 -258 l38 -49 15 33 c7 18 30 71 51 118 359 826 475 1796 324 2705 -219 1317 -976 2482 -2101 3233 -732 489 -1556 758 -2459 802 -223 11 -232 11 -460 -1z m-152 -785 c21 -17 48 -48 60 -70 l23 -39 0 -813 c0 -791 -1 -814 -20 -873 -27 -79 -56 -123 -122 -185 -98 -93 -150 -108 -438 -129 -234 -17 -535 -47 -699 -70 -188 -27 -241 -17 -314 53 -46 44 -63 74 -77 137 -14 63 0 117 96 359 309 781 745 1350 1244 1625 70 39 79 42 142 39 57 -3 72 -8 105 -34z m1021 7 c326 -165 670 -519 935 -960 144 -239 287 -546 383 -818 67 -190 58 -274 -39 -359 -79 -69 -120 -75 -347 -45 -178 24 -511 57 -725 71 -109 7 -180 17 -223 31 -123 40 -234 153 -272 276 -19 63 -20 90 -20 873 0 476 4 819 9 833 14 37 72 98 106 113 53 23 129 17 193 -15z m-2760 -497 c27 -18 52 -65 52 -95 0 -11 -41 -95 -91 -186 -205 -368 -379 -805 -505 -1262 -52 -190 -77 -245 -146 -317 -72 -77 -132 -111 -276 -159 -177 -59 -376 -135 -512 -194 -123 -55 -177 -63 -229 -36 -62 31 -109 118 -97 177 17 86 186 443 303 640 189 322 382 568 662 849 220 220 393 365 609 510 142 95 181 108 230 73z m4463 -45 c501 -329 970 -820 1290 -1350 120 -199 299 -571 323 -672 14 -60 -32 -150 -95 -182 -46 -24 -110 -18 -186 16 -126 57 -357 147 -513 199 -190 63 -234 86 -309 164 -79 83 -101 130 -165 357 -144 510 -294 873 -555 1339 -34 62 -38 88 -16 130 21 40 53 60 96 60 28 0 59 -14 130 -61z"/>
<path d="M4692 5649 c-159 -20 -338 -88 -473 -179 -88 -60 -219 -189 -280 -277 -188 -272 -245 -614 -154 -928 107 -367 399 -652 773 -752 87 -24 115 -27 272 -27 158 0 185 3 273 27 386 104 681 398 784 782 24 90 27 117 27 275 0 158 -3 185 -27 273 -61 229 -203 445 -380 581 -239 183 -527 263 -815 225z"/>
<path d="M2216 4649 c-272 -67 -489 -279 -568 -555 -29 -104 -32 -305 -5 -404 58 -216 204 -399 396 -499 115 -59 199 -82 326 -88 227 -11 410 54 571 201 169 154 256 354 256 586 0 143 -23 234 -89 363 -38 74 -65 109 -138 182 -123 123 -238 188 -393 220 -96 21 -260 18 -356 -6z"/>
<path d="M7115 4655 c-396 -87 -668 -468 -615 -861 25 -191 93 -329 229 -464 171 -169 351 -238 591 -227 294 13 543 178 670 441 59 123 74 191 74 336 0 153 -18 231 -79 355 -106 212 -291 361 -517 415 -97 23 -260 26 -353 5z"/>
<path d="M4634 3266 c-3 -7 14 -41 38 -75 59 -85 58 -119 -5 -228 -66 -115 -88 -176 -96 -260 l-6 -73 -218 275 c-120 151 -234 287 -252 301 -40 30 -113 54 -165 54 -51 0 -761 -206 -1035 -300 -175 -60 -254 -112 -298 -194 -19 -36 -22 -56 -21 -166 1 -236 88 -786 146 -922 25 -59 41 -69 238 -148 271 -109 1204 -450 1604 -586 200 -68 342 -66 563 10 670 229 1694 611 1770 661 32 21 49 60 78 172 76 305 135 834 105 945 -15 51 -88 129 -157 165 -87 47 -344 129 -928 298 -372 108 -355 115 -673 -283 l-227 -284 -6 83 c-6 78 -11 93 -73 214 -84 164 -85 192 -8 292 45 60 35 63 -178 63 -151 0 -192 -3 -196 -14z"/>
<path d="M2260 2941 c0 -4 9 -20 20 -34 11 -14 27 -42 36 -63 15 -37 15 -37 -36 -136 -38 -74 -53 -115 -58 -161 l-7 -61 -153 192 c-166 207 -192 234 -248 252 -52 17 -87 10 -389 -79 -506 -149 -571 -175 -622 -253 -26 -39 -28 -48 -27 -142 2 -179 72 -601 111 -669 23 -39 58 -57 288 -146 332 -128 1207 -441 1232 -441 24 0 533 182 533 191 0 5 -5 9 -10 9 -24 0 -259 113 -278 133 -81 86 -157 431 -207 931 -22 224 -6 321 71 421 19 25 34 50 34 55 0 6 -56 10 -145 10 -80 0 -145 -4 -145 -9z"/>
<path d="M7140 2940 c0 -6 12 -28 26 -50 26 -39 32 -59 56 -187 14 -73 2 -241 -38 -527 -49 -347 -101 -549 -165 -630 -21 -27 -100 -70 -222 -121 -49 -20 -64 -31 -54 -37 25 -14 524 -188 539 -188 30 0 1069 375 1327 479 117 47 170 73 183 92 26 35 53 144 82 334 69 442 59 505 -97 579 -105 50 -790 256 -852 256 -18 0 -56 -12 -84 -27 -42 -23 -76 -61 -208 -228 l-158 -200 -6 59 c-5 41 -21 87 -58 160 -28 55 -51 106 -51 112 0 5 15 36 34 67 19 30 31 58 28 61 -10 11 -282 6 -282 -4z"/>
<path d="M6710 971 c-56 -33 -1583 -579 -1709 -612 -89 -23 -239 -25 -326 -5 -60 15 -1149 400 -1531 543 l-202 75 -258 -91 c-143 -50 -266 -91 -275 -91 -9 0 -100 29 -203 65 -102 35 -186 63 -186 61 0 -2 64 -47 142 -99 691 -460 1442 -722 2288 -798 174 -15 616 -15 790 0 718 65 1376 267 1980 609 117 65 453 282 448 288 -2 1 -86 -26 -187 -62 -101 -35 -191 -64 -200 -64 -9 0 -138 43 -286 95 -149 52 -270 95 -270 95 0 -1 -7 -5 -15 -9z"/>
</g>
</svg>